<svg width="267" height="53" viewBox="0 0 267 53" fill="none" xmlns="http://www.w3.org/2000/svg">
<g clip-path="url(#clip0_1_8)">
<path d="M18.688 51H3.328V13.88H16.384L17.728 21.816C19.968 16.44 24.64 12.792 32 12.792C39.616 12.792 43.968 16.12 46.016 21.944C48.256 16.376 53.184 12.856 60.48 12.856C71.232 12.856 75.904 19.512 75.904 30.264V51H60.672V34.872C60.672 33.016 60.48 31.416 60.16 29.944C59.456 27.128 57.728 25.528 53.952 25.528C48.896 25.528 47.36 29.496 47.36 35.512V51H32.128V34.616C32.128 32.824 31.936 31.224 31.68 29.88C31.104 27.128 29.376 25.528 25.6 25.528C20.288 25.528 18.688 29.432 18.688 35.704V51ZM116.067 51H105.635C101.027 51 97.4425 50.424 94.8825 49.144C89.7625 46.648 87.9705 41.464 87.9705 32.632V26.488H79.3305V14.648C81.8265 14.584 84.0025 14.456 85.7305 14.008C87.9705 13.432 88.8665 12.408 89.6345 10.296C90.3385 8.44 90.4665 5.752 90.5305 3.64H102.371V13.88H116.067V26.488H102.371V31.224C102.371 33.272 102.563 34.872 102.883 35.896C103.651 38.008 105.571 38.52 109.667 38.52H116.067V51ZM121.58 51V2.04H137.003V51H121.58ZM152.921 51.96C150.617 51.96 148.76 51.768 147.481 51.32C144.793 50.36 143.833 48.248 143.833 43.896C143.833 37.368 146.585 35.768 152.921 35.768C159.257 35.768 162.009 37.368 162.009 43.896C162.009 50.168 159.513 51.96 152.921 51.96ZM190.712 52.216C176.632 52.216 167.672 48.568 165.816 38.776H182.135C183.224 41.464 185.848 42.424 192.184 42.424C197.496 42.424 199.16 41.272 199.16 39.672C199.16 39.16 198.84 38.712 198.264 38.392C197.176 37.688 194.04 37.368 187.448 37.112C182.456 36.856 178.616 36.344 175.608 35.576C169.592 34.04 167.16 31.096 167.16 26.04C167.16 17.912 174.328 12.792 188.792 12.792C203 12.792 210.616 16.696 213.56 25.72H198.007C196.984 22.968 193.464 22.136 188.408 22.136C183.032 22.136 181.624 23.288 181.624 24.76C181.624 25.272 181.944 25.784 182.648 26.104C183.992 26.808 187.128 27.192 192.952 27.448C198.264 27.704 202.424 28.216 205.496 29.048C211.576 30.648 213.816 33.656 213.816 38.712C213.816 41.4 212.984 43.704 211.384 45.752C208.184 49.784 201.592 52.216 190.712 52.216ZM233.246 51H218.078V2.04H233.182V20.536C235.998 15.736 240.862 12.792 247.454 12.792C258.206 12.792 263.966 19 263.966 29.752V51H248.67V34.424C248.67 28.664 246.942 25.464 241.374 25.464C235.614 25.464 233.246 28.344 233.246 34.936V51Z" fill="black"/>
</g>
<defs>
<clipPath id="clip0_1_8">
<rect width="267" height="53" fill="white"/>
</clipPath>
</defs>
</svg>
